<svg xmlns="http://www.w3.org/2000/svg" xmlns:xlink="http://www.w3.org/1999/xlink" version="1.1" width="256" height="256" viewBox="0 0 256 256" xml:space="preserve">
<desc>Created with Fabric.js 1.7.22</desc>
<defs>
</defs>
<g transform="translate(128 128) scale(0.72 0.72)" style="">
	<g style="stroke: none; stroke-width: 0; stroke-dasharray: none; stroke-linecap: butt; stroke-linejoin: miter; stroke-miterlimit: 10; fill: none; fill-rule: nonzero; opacity: 1;" transform="translate(-175.05 -175.05000000000004) scale(3.89 3.89)" >
	<path d="M 66.158 8.089 C 59.351 1.992 50.557 -0.81 41.393 0.203 C 26.297 1.871 14.51 14.096 13.365 29.273 c -0.69 9.138 2.573 18.119 8.951 24.64 c 2.549 2.606 4.012 6.344 4.012 10.254 v 20.178 c 0 3.119 2.538 5.656 5.656 5.656 h 26.032 c 3.118 0 5.655 -2.537 5.655 -5.656 V 63.851 c 0 -3.729 1.43 -7.318 3.921 -9.846 c 5.891 -5.973 9.135 -13.884 9.135 -22.274 C 76.726 22.721 72.875 14.104 66.158 8.089 z M 59.67 66.166 v 3.995 h -3.924 c -1.104 0 -2 0.895 -2 2 s 0.895 2 2 2 h 3.924 v 3.995 H 30.327 v -3.995 h 18.144 c 1.104 0 2 -0.895 2 -2 s -0.895 -2 -2 -2 H 30.327 v -3.995 H 59.67 z M 58.015 86 H 31.983 c -0.913 0 -1.656 -0.743 -1.656 -1.656 v -2.188 H 59.67 v 2.188 C 59.67 85.257 58.928 86 58.015 86 z M 64.742 51.196 c -2.887 2.93 -4.625 6.778 -4.994 10.97 H 30.223 c -0.421 -4.241 -2.172 -8.11 -5.048 -11.05 c -5.574 -5.699 -8.425 -13.551 -7.822 -21.542 c 0.984 -13.044 11.508 -23.962 24.48 -25.395 c 1.075 -0.119 2.143 -0.177 3.203 -0.177 c 6.844 0 13.301 2.454 18.454 7.068 c 5.87 5.257 9.236 12.788 9.236 20.662 C 72.726 39.062 69.891 45.975 64.742 51.196 z" style="stroke: none; stroke-width: 1; stroke-dasharray: none; stroke-linecap: butt; stroke-linejoin: miter; stroke-miterlimit: 10; fill: rgb(0,0,0); fill-rule: nonzero; opacity: 1;" transform=" matrix(1 0 0 1 0 0) " stroke-linecap="round" />
	<path d="M 62.131 30.392 c -1.104 0 -2 -0.895 -2 -2 c 0 -4.297 -1.837 -8.407 -5.041 -11.276 c -3.248 -2.909 -7.452 -4.245 -11.823 -3.761 c -1.104 0.123 -2.086 -0.67 -2.207 -1.768 c -0.122 -1.098 0.67 -2.086 1.768 -2.207 c 5.443 -0.603 10.884 1.132 14.931 4.756 c 4.05 3.627 6.372 8.823 6.372 14.256 C 64.131 29.496 63.235 30.392 62.131 30.392 z" style="stroke: none; stroke-width: 1; stroke-dasharray: none; stroke-linecap: butt; stroke-linejoin: miter; stroke-miterlimit: 10; fill: rgb(0,0,0); fill-rule: nonzero; opacity: 1;" transform=" matrix(1 0 0 1 0 0) " stroke-linecap="round" />
</g>
</g>
</svg>