<svg xmlns="http://www.w3.org/2000/svg" xmlns:xlink="http://www.w3.org/1999/xlink" version="1.1" width="256" height="256" viewBox="0 0 256 256" xml:space="preserve">
<desc>Created with Fabric.js 1.7.22</desc>
<defs>
</defs>
<g transform="translate(128 128) scale(0.72 0.72)" style="">
	<g style="stroke: none; stroke-width: 0; stroke-dasharray: none; stroke-linecap: butt; stroke-linejoin: miter; stroke-miterlimit: 10; fill: none; fill-rule: nonzero; opacity: 1;" transform="translate(-175.05 -175.05000000000004) scale(3.89 3.89)" >
	<path d="M 65.955 8.008 c -6.743 -6.04 -15.457 -8.811 -24.529 -7.81 c -14.947 1.651 -26.62 13.758 -27.753 28.786 c -0.683 9.051 2.548 17.945 8.864 24.403 c 2.798 2.86 4.403 6.951 4.403 11.224 v 20.648 c 0 2.614 2.127 4.741 4.741 4.741 h 26.638 c 2.614 0 4.74 -2.127 4.74 -4.741 V 64.288 c 0 -4.09 1.572 -8.03 4.313 -10.811 c 5.834 -5.915 9.047 -13.749 9.047 -22.058 C 76.42 22.498 72.605 13.964 65.955 8.008 z" style="stroke: none; stroke-width: 1; stroke-dasharray: none; stroke-linecap: butt; stroke-linejoin: miter; stroke-miterlimit: 10; fill: rgb(0,0,0); fill-rule: nonzero; opacity: 1;" transform=" matrix(1 0 0 1 0 0) " stroke-linecap="round" />
	<path d="M 65.949 52.073 c -2.954 2.996 -4.691 7.17 -4.857 11.537 H 28.894 c -0.226 -4.471 -1.943 -8.571 -4.928 -11.622 c -5.915 -6.047 -8.939 -14.377 -8.3 -22.854 C 16.728 15.065 27.654 3.731 41.646 2.186 c 1.14 -0.126 2.273 -0.188 3.396 -0.188 c 7.26 0 14.111 2.604 19.578 7.5 c 6.229 5.578 9.8 13.568 9.8 21.922 C 74.42 39.2 71.411 46.535 65.949 52.073 z" style="stroke: none; stroke-width: 1; stroke-dasharray: none; stroke-linecap: butt; stroke-linejoin: miter; stroke-miterlimit: 10; fill: rgb(255,229,58); fill-rule: nonzero; opacity: 1;" transform=" matrix(1 0 0 1 0 0) " stroke-linecap="round" />
	<path d="M 62.531 29.003 c -0.553 0 -1 -0.448 -1 -1 c 0 -4.694 -2.007 -9.185 -5.507 -12.319 c -3.547 -3.177 -8.129 -4.635 -12.911 -4.108 c -0.537 0.062 -1.043 -0.335 -1.104 -0.884 c -0.061 -0.549 0.335 -1.043 0.884 -1.104 c 5.353 -0.591 10.489 1.045 14.465 4.606 c 3.923 3.513 6.173 8.546 6.173 13.809 C 63.531 28.556 63.084 29.003 62.531 29.003 z" style="stroke: none; stroke-width: 1; stroke-dasharray: none; stroke-linecap: butt; stroke-linejoin: miter; stroke-miterlimit: 10; fill: rgb(0,0,0); fill-rule: nonzero; opacity: 1;" transform=" matrix(1 0 0 1 0 0) " stroke-linecap="round" />
	<path d="M 61.06 65.61 v 6.182 h -5.062 c -0.553 0 -1 0.447 -1 1 s 0.447 1 1 1 h 5.062 v 6.181 H 28.94 v -6.181 h 19.614 c 0.553 0 1 -0.447 1 -1 s -0.447 -1 -1 -1 H 28.94 V 65.61 H 61.06 z" style="stroke: none; stroke-width: 1; stroke-dasharray: none; stroke-linecap: butt; stroke-linejoin: miter; stroke-miterlimit: 10; fill: rgb(240,240,240); fill-rule: nonzero; opacity: 1;" transform=" matrix(1 0 0 1 0 0) " stroke-linecap="round" />
	<path d="M 58.319 88 H 31.681 c -1.512 0 -2.741 -1.229 -2.741 -2.741 v -3.286 h 32.12 v 3.286 C 61.06 86.771 59.83 88 58.319 88 z" style="stroke: none; stroke-width: 1; stroke-dasharray: none; stroke-linecap: butt; stroke-linejoin: miter; stroke-miterlimit: 10; fill: rgb(240,240,240); fill-rule: nonzero; opacity: 1;" transform=" matrix(1 0 0 1 0 0) " stroke-linecap="round" />
</g>
</g>
</svg>