<?xml version="1.0" encoding="UTF-8" standalone="no"?>
<!DOCTYPE svg PUBLIC "-//W3C//DTD SVG 1.1//EN" "http://www.w3.org/Graphics/SVG/1.1/DTD/svg11.dtd">
<svg width="100%" height="100%" viewBox="0 0 268 163" version="1.1" xmlns="http://www.w3.org/2000/svg" xmlns:xlink="http://www.w3.org/1999/xlink" xml:space="preserve" xmlns:serif="http://www.serif.com/" style="fill-rule:evenodd;clip-rule:evenodd;stroke-linejoin:round;stroke-miterlimit:2;">
    <g transform="matrix(1,0,0,1,-366.548,-0.000179301)">
        <g>
            <path d="M500.044,17.759C503.732,11.737 509.851,5.436 516.44,2.771C527.781,-2.389 542.982,-0.17 552.235,7.995C561.189,16.107 565.731,27.225 563.588,39.655C565.784,39.25 568.001,37.844 570.326,37.044C584.225,33.121 598.925,37.375 607.837,49.292C614.531,57.799 616.28,71.016 612.262,81.293C610.268,86.462 606.867,91.11 602.445,95.076L602.891,95.524C615.822,96.152 628.53,106.194 632.452,118.506C636.705,130.925 632.964,144.196 623.882,153.279C616.462,160.613 606.921,163.151 596.315,162.937L403.765,162.937C387.955,163.278 375.739,156.274 369.162,142.215C364.002,130.147 366.55,114.712 376.186,105.513C382.262,99.159 389.874,96.557 398.082,95.247C388.787,86.623 384.309,74.823 386.921,62.169C388.787,51.915 397.528,41.532 407.569,37.95C416.416,34.432 428.399,35.05 436.501,39.825L436.789,39.473C434.348,25.519 440.531,12.93 452.106,5.212C462.426,-1.769 478.927,-1.589 489.032,5.832C493.574,8.613 497.315,13.389 500.044,17.759" style="fill:white;fill-rule:nonzero;"/>
            <path d="M554.558,22.972C558.695,31.319 556.265,42.256 551.947,49.75L518.539,124.913L518.25,125.265L506.174,49.015C505.205,41.693 513.028,38.569 517.633,35.051C517.399,33.975 516.215,34.028 515.47,33.527L504.182,33.409L503.839,33.068C503.903,23.602 508.999,14.861 517.633,10.267C526.653,5.055 539.358,6.472 547.182,13.156C550.359,15.99 553.035,19.283 554.558,22.972" style="fill:rgb(100,95,170);fill-rule:nonzero;"/>
            <path d="M493.008,20.36C495.738,25.413 497.316,31.149 496.356,37.501L482.733,124.806C482.807,124.912 482.68,125.03 482.572,125.082L479.044,118.058L444.9,41.808C441.723,31.99 444.666,21.725 451.818,14.688C459.024,7.376 470.878,5.393 480.302,9.359C485.291,11.513 490.056,15.479 493.008,20.36" style="fill:rgb(201,35,74);fill-rule:nonzero;"/>
            <path d="M603.978,57.115C608.572,64.949 607.539,76.804 602.431,84.074C599.267,89.18 594.042,91.728 589.618,95.075L518.87,143.64L518.708,143.64L519.498,141.317L557,56.668C562.618,46.69 573.342,41.637 584.684,43.161C592.455,44.58 600.226,49.632 603.978,57.115" style="fill:rgb(0,137,207);fill-rule:nonzero;"/>
            <path d="M443.259,56.668L482.285,143.631L481.657,143.631L402.977,89.404C394.97,82.657 391.688,72.551 394.406,62.339C396.442,54.685 402.795,47.533 410.353,44.696C422.728,40.166 436.67,44.984 443.259,56.668" style="fill:rgb(243,111,33);fill-rule:nonzero;"/>
            <path d="M624.509,118.505C628.431,126.788 626.886,138.13 621.279,145.175C615.716,151.924 608.274,155.612 599.543,155.377L515.65,155.431L585.929,106.535C592.796,102.111 603.232,101.31 610.726,104.892C616.513,107.163 621.961,112.834 624.509,118.505" style="fill:rgb(13,177,75);fill-rule:nonzero;"/>
            <path d="M376.08,118.505C372.169,126.788 373.703,138.13 379.321,145.175C384.885,151.924 392.304,155.612 401.046,155.377L484.939,155.431L414.659,106.535C407.794,102.111 397.359,101.31 389.875,104.892C384.085,107.163 378.639,112.834 376.08,118.505" style="fill:rgb(253,185,19);fill-rule:nonzero;"/>
        </g>
    </g>
</svg>
